<?xml version="1.0" encoding="utf-8"?>
<!-- Generator: Adobe Illustrator 16.0.0, SVG Export Plug-In . SVG Version: 6.00 Build 0)  -->
<!DOCTYPE svg PUBLIC "-//W3C//DTD SVG 1.1//EN" "http://www.w3.org/Graphics/SVG/1.1/DTD/svg11.dtd">
<svg version="1.1" id="Layer_1" xmlns="http://www.w3.org/2000/svg" xmlns:xlink="http://www.w3.org/1999/xlink" x="0px" y="0px"
	 width="137.854px" height="200px" viewBox="56.072 0 137.854 200" enable-background="new 56.072 0 137.854 200"
	 xml:space="preserve">
<path fill="#F7941E" d="M57.402,179.504c10.026-7.004,18.098-14.748,24.216-23.218c6.124-8.472,9.182-17.675,9.182-27.61
	c0-2.838-0.574-6.166-1.728-9.98c-0.71-2.396-1.91-5.68-3.59-9.848h-29.41v-13.84h20.892c0,0.444-1.484-2.328-4.458-8.312
	c-2.97-5.988-4.948-10.358-5.92-13.106c-0.888-2.572-1.642-5.568-2.26-8.986c-0.624-3.414-0.934-7.07-0.934-10.976
	c0-13.84,5.634-26.236,16.9-37.19C91.558,5.48,107.7,0,128.725,0c19.785,0,34.754,5.41,44.909,16.234
	c10.158,10.822,15.37,26.124,15.638,45.908h-24.619c0-13.394-3.129-23.574-9.383-30.54c-6.252-6.96-15.77-10.44-28.541-10.44
	c-12.417,0-21.823,3.258-28.208,9.778c-6.39,6.516-9.582,14.436-9.582,23.754c0,4.61,0.998,9.356,2.992,14.234
	c1.998,4.88,6.232,13.572,12.708,26.08h43.648v13.84H110.63c0.886,4.08,1.528,7.276,1.932,9.582c0.394,2.305,0.596,4.7,0.596,7.185
	c0,8.872-2.66,17.634-7.986,26.28c-5.32,8.649-13.66,17.233-25.016,25.752c6.122-3.108,12.154-5.566,18.1-7.389
	c5.942-1.818,11.752-2.724,17.428-2.724c6.39,0,14.835,1.571,25.35,4.724c10.512,3.145,17.405,4.721,20.69,4.721
	c4.172,0,7.985-0.797,11.443-2.395c2.13-0.975,5.37-3.016,9.714-6.124l11.044,17.966c-4.968,3.992-9.404,6.961-13.306,8.914
	c-6.472,3.108-13.354,4.66-20.624,4.66c-5.32,0-14.258-2.042-26.814-6.124c-12.55-4.08-22.464-6.12-29.74-6.12
	c-6.74,0-13.126,1.152-19.16,3.458c-3.548,1.42-8.116,3.813-13.708,7.185L57.402,179.504z"/>
</svg>
