<?xml version="1.0" encoding="utf-8"?>
<!-- Generator: Adobe Illustrator 16.0.0, SVG Export Plug-In . SVG Version: 6.00 Build 0)  -->
<!DOCTYPE svg PUBLIC "-//W3C//DTD SVG 1.1//EN" "http://www.w3.org/Graphics/SVG/1.1/DTD/svg11.dtd">
<svg version="1.1" id="Layer_1" xmlns="http://www.w3.org/2000/svg" xmlns:xlink="http://www.w3.org/1999/xlink" x="0px" y="0px"
	 width="106.946px" height="107.34px" viewBox="71.186 27.563 106.946 107.34"
	 enable-background="new 71.186 27.563 106.946 107.34" xml:space="preserve">
<path fill="#F7941E" d="M102.077,87.001c-0.275,0.702-0.177,1.103-0.177,1.103l0.36,5.208c-0.179,7.125-3.298,9.456-3.298,9.456
	l4.412,28.383c-5.018-1.807-9.722-4.228-14.024-7.159l-1.835-20.479c0,0-0.985-0.497-2.946-1.4c-1.956-0.899-4.006-3.43-4.529-4.296
	c-0.512-0.868-1.724-3.296-4.67-5.519c-2.94-2.225-3.224-1.163-4-2.513c-0.781-1.346,1.175-2.195,1.175-2.195
	s5.436-1.061,10.029,4.67c0,0,0.139-0.037,0.386-0.071l0.064-0.217c-0.055,0.006-0.087,0.006-0.087,0.006
	c0.03-0.004,0.058-0.006,0.09-0.009l0.275-0.928c0,0,0.011-0.145,0.026-0.375c1.468-0.03,6.792,0.205,9.039,4.968
	c0.141,0.227,0.284,0.457,0.422,0.702c0,0-0.422-6.675-9.459-5.688c0.045-0.719,0.126-2.242,0.041-2.967
	c-0.115-0.964-0.533-1.893-0.533-1.893l-4.655-10.976c0,0-0.887-1.85,0.76-2.715c1.645-0.866,2.543,0.625,2.543,0.625
	s4.932,9.858,5.489,11.078c0.557,1.218,1.299-0.356,1.299-0.356L86.496,70.27c0,0-0.512-2.153,1.798-2.635
	c2.311-0.478,2.513,2.946,2.513,2.946s1.555,11.34,1.764,12.657c0.211,1.314,0.932,0.045,0.932,0.045s1.739-10.908,1.907-12.062
	c0.175-1.156,0.533-2.434,2.24-2.378c1.707,0.053,1.472,3.733,1.472,3.733s-1.303,11.07-1.361,11.899
	c-0.056,0.832,0.488,0.612,0.488,0.612s4.132-8.521,4.469-9.126c0.341-0.61,1.005-1.926,2.682-1.248
	c1.675,0.674,0.011,4.375,0.011,4.375S102.357,86.304,102.077,87.001z M177.67,81.22c-1.416-0.971-2.305,0.117-2.741,0.606
	c-0.438,0.493-6.005,7.561-6.005,7.561s-0.549,0.089-0.327-0.666c0.222-0.76,3.688-10.758,3.688-10.758s0.965-3.371-0.604-3.772
	s-2.163,0.715-2.564,1.75c-0.386,1.032-4.224,10.799-4.224,10.799s-0.935,1.032-0.854-0.224c0.072-1.263,0.94-12.104,0.94-12.104
	s0.512-3.217-1.73-3.245c-2.246-0.023-2.199,2.078-2.199,2.078l-1.043,12.581c0,0-1.014,1.312-1.279,0.068
	c-0.268-1.248-2.834-11.398-2.834-11.398s-0.524-1.57-2.229-1.101c-1.705,0.467-1.26,2.364-1.26,2.364l2.08,11.129
	c0,0,0.201,0.943,0.111,1.863c-0.066,0.674-0.436,2.016-0.629,2.692c8.275,1.035,7.334,7.164,7.334,7.164
	c-0.078-0.258-0.166-0.503-0.254-0.745c-1.045-4.58-5.436-6.005-7.091-6.385c-0.063,0.226-0.108,0.374-0.108,0.374l-0.446,0.804
	c-0.032-0.004-0.056-0.006-0.092-0.011c0,0,0.036,0.004,0.092,0.013l-0.104,0.19c-0.236-0.017-0.375-0.015-0.375-0.015
	c-3.092-6.255-8.348-6.379-8.348-6.379s-1.993,0.393-1.545,1.798c0.445,1.415,0.93,0.489,3.204,3.149
	c2.278,2.663,2.907,5.163,3.208,6.071c0.306,0.909,1.689,3.681,3.326,4.909c1.633,1.234,2.445,1.9,2.445,1.9l-3.146,24.619
	c4.693-2.206,9.047-4.973,12.982-8.203l0.924-14.773c0,0,3.369-1.521,4.988-8.096l0.725-4.902c0,0-0.008-0.393,0.395-0.986
	c0.399-0.595,4.705-6.66,4.705-6.66S179.088,82.187,177.67,81.22z M154.583,42.295c-2.577-1.412-3.908,0.583-4.576,1.498
	c-0.665,0.913-8.979,13.884-8.979,13.884s-0.917,0.25-0.665-1.08c0.247-1.333,4.488-18.959,4.488-18.959s1.079-5.9-1.661-6.319
	c-2.742-0.414-3.576,1.581-4.073,3.411c-0.499,1.829-5.403,19.121-5.403,19.121s-1.414,1.914-1.496-0.25
	c-0.08-2.163-0.414-20.785-0.414-20.785s0.334-5.572-3.494-5.239c-3.825,0.333-3.409,3.91-3.409,3.91l0.331,21.615
	c0,0-1.498,2.409-2.163,0.333c-0.664-2.08-6.733-18.957-6.733-18.957s-1.165-2.579-3.992-1.498s-1.747,4.241-1.747,4.241
	l5.406,18.624c0,0,0.497,1.581,0.497,3.158c0,1.581-0.749,5.406-0.749,5.406l-0.075,0.173c14.735,0.173,14.127,11.003,14.127,11.003
	c-0.176-0.416-0.353-0.804-0.538-1.192c-2.682-8.089-11.157-9.532-13.602-9.781l-0.536,1.242c-0.051,0-0.098-0.002-0.149-0.002
	c0,0,0.051,0.002,0.147,0.009l-0.147,0.339c-0.405,0.013-0.638,0.043-0.638,0.043c-6.315-10.146-15.296-9.48-15.296-9.48
	s-3.326,0.998-2.321,3.326c0.999,2.328,1.662,0.668,5.986,4.821c4.322,4.158,5.819,8.316,6.485,9.812
	c0.666,1.5,3.492,5.988,6.485,7.814c2.989,1.831,4.488,2.829,4.488,2.829l-1.434,49.235c2.061,0.2,4.151,0.305,6.268,0.305
	c5.334,0,10.512-0.653,15.447-1.875l-1.659-46.667c0,0,5.489-3.158,7.151-14.633l0.413-8.482c0,0-0.081-0.666,0.495-1.747
	c0.584-1.078,6.901-12.137,6.901-12.137S157.158,43.71,154.583,42.295z"/>
</svg>
