<?xml version="1.0" encoding="utf-8"?>
<!-- Generator: Adobe Illustrator 16.0.0, SVG Export Plug-In . SVG Version: 6.00 Build 0)  -->
<!DOCTYPE svg PUBLIC "-//W3C//DTD SVG 1.1//EN" "http://www.w3.org/Graphics/SVG/1.1/DTD/svg11.dtd">
<svg version="1.1" id="Capa_1" xmlns="http://www.w3.org/2000/svg" xmlns:xlink="http://www.w3.org/1999/xlink" x="0px" y="0px"
	 width="64px" height="64px" viewBox="0 0 64 64" enable-background="new 0 0 64 64" xml:space="preserve">
<g>
	<path d="M47.4,57.834c-0.896,0-1.726-0.184-2.342-0.458c-2.189-1.136-3.729-2.707-5.271-7.325
		c-1.568-4.809-4.521-7.057-7.358-9.242c-2.435-1.883-4.96-3.819-7.146-7.798c-1.632-2.952-2.525-6.189-2.525-9.056
		c0-8.624,6.778-15.397,15.4-15.397c8.622,0,15.399,6.773,15.399,15.397h6.16c0-12.099-9.458-21.562-21.56-21.562
		c-12.104,0-21.56,9.464-21.56,21.562c0,3.877,1.173,8.166,3.299,12.018c2.8,5.078,6.099,7.635,8.778,9.699
		c2.491,1.906,4.281,3.299,5.264,6.314c1.849,5.6,4.222,8.744,8.405,10.936C43.917,63.629,45.645,64,47.4,64
		c6.808,0,12.319-5.51,12.319-12.32h-6.159C53.561,55.064,50.787,57.834,47.4,57.834z M18.571,4.373L14.197,0
		C8.066,6.128,4.28,14.603,4.28,23.958c0,9.365,3.787,17.837,9.917,23.962l4.341-4.344c-4.986-5.02-8.099-11.947-8.099-19.619
		C10.44,16.293,13.555,9.363,18.571,4.373z M30.461,23.958c0,4.25,3.448,7.707,7.699,7.707c4.25,0,7.701-3.456,7.701-7.707
		c0-4.251-3.451-7.702-7.701-7.702C33.909,16.259,30.461,19.709,30.461,23.958z"/>
</g>
</svg>
