<?xml version="1.0" encoding="utf-8"?>
<!-- Generator: Adobe Illustrator 16.0.0, SVG Export Plug-In . SVG Version: 6.00 Build 0)  -->
<!DOCTYPE svg PUBLIC "-//W3C//DTD SVG 1.1//EN" "http://www.w3.org/Graphics/SVG/1.1/DTD/svg11.dtd">
<svg version="1.1" id="Layer_1" xmlns="http://www.w3.org/2000/svg" xmlns:xlink="http://www.w3.org/1999/xlink" x="0px" y="0px"
	 width="250px" height="200px" viewBox="0 0 250 200" enable-background="new 0 0 250 200" xml:space="preserve">
<g>
	<polygon fill-rule="evenodd" clip-rule="evenodd" fill="#FFFFFF" points="28,3 220.756,3 220.756,195.756 28,195.756 28,3 	"/>
	<path fill-rule="evenodd" clip-rule="evenodd" fill="#00A94F" d="M201.388,71.763l-24.513,0.01l-6.47,25.769l0,0
		c-0.013-0.777-0.087-1.553-0.282-2.698c-0.195-1.145-0.514-2.661-0.853-3.923s-0.699-2.271-1.198-3.365
		c-0.5-1.094-1.139-2.272-2.066-3.607c-0.929-1.335-2.145-2.827-3.176-3.945c-1.03-1.118-1.874-1.862-3.067-2.733
		s-2.734-1.871-4.293-2.639c-1.559-0.768-3.135-1.306-4.387-1.676c-1.253-0.371-2.181-0.574-3.248-0.747
		c-1.066-0.173-2.271-0.315-3.007-0.39c-0.734-0.074-0.999-0.067-1.265-0.066l0,0l-19.055,0.032l0.007,30.73l0,0
		c-0.373-0.891-0.806-1.77-1.309-2.635c-0.808-1.31-1.788-2.515-2.859-3.528c-1.072-1.014-2.235-1.836-3.873-2.643
		s-3.749-1.597-5.886-2.179s-4.306-0.912-6.483-1.123l0,0l-3.261-0.317l0,0c-0.551-0.013-1.099-0.145-1.62-0.4
		c-0.52-0.256-1.012-0.635-1.324-0.987c-0.312-0.352-0.441-0.676-0.516-1.01c-0.173-0.737-0.03-1.548,0.418-2.137
		c0.242-0.323,0.565-0.574,0.911-0.763c0.346-0.189,0.715-0.318,1.545-0.433s2.12-0.215,3.436-0.178
		c1.316,0.038,2.658,0.214,4.153,0.526c1.494,0.312,3.142,0.759,4.435,1.165c1.292,0.405,2.229,0.769,3.136,1.195l0,0l6.249-11.588
		l0,0c-0.744-0.457-1.53-0.84-2.917-1.376c-1.387-0.537-3.374-1.227-5.589-1.733c-2.215-0.506-4.658-0.828-7.157-0.884
		c-2.499-0.056-5.054,0.154-6.965,0.374c-1.911,0.22-3.178,0.45-4.902,1.037c-1.724,0.586-3.904,1.529-5.629,2.627
		c-1.725,1.098-2.995,2.35-3.8,3.217c-0.806,0.866-1.148,1.347-1.588,2.084c-0.439,0.738-0.976,1.732-1.403,2.75
		c-0.429,1.017-0.748,2.056-0.962,3.067c-0.428,2.017-0.43,3.978-0.01,6.176c0.211,1.097,0.529,2.238,1.033,3.322
		c0.504,1.084,1.192,2.111,1.884,2.952c0.692,0.841,1.386,1.495,2.116,2.107c0.73,0.613,1.497,1.185,2.925,1.87
		c1.429,0.686,3.519,1.486,5.092,2c1.572,0.514,2.627,0.741,3.685,0.941c1.059,0.199,2.121,0.37,2.817,0.477
		c0.696,0.105,1.026,0.146,1.446,0.192c0.42,0.047,0.931,0.099,1.429,0.266s0.983,0.45,1.326,0.778
		c0.343,0.329,0.543,0.703,0.685,1.084s0.223,0.768,0.198,1.271s-0.158,1.122-0.354,1.613s-0.454,0.854-0.861,1.203
		c-0.406,0.35-0.96,0.688-1.449,0.877c-0.488,0.19-0.911,0.233-1.691,0.162c-0.781-0.07-1.919-0.254-2.695-0.411
		s-1.188-0.29-1.58-0.469c-1.658-0.653-3.316-1.307-4.928-2.058c-1.612-0.752-3.178-1.602-4.745-2.452l0,0l-4.411,7.237
		L69.721,71.828l-24.326-0.014l-14.561,55.339l16.931-0.029l2.801-11.26l15.779-0.004l3.148,11.291l16.35-0.046l-1.134-3.855l0,0
		c0.415,0.241,0.846,0.454,1.851,0.894c1.005,0.44,2.584,1.107,4.583,1.689c1.999,0.582,4.417,1.079,6.625,1.3
		c2.207,0.221,4.203,0.166,5.867,0.009c1.664-0.156,2.996-0.415,4.308-0.744c2.581-0.664,5.062-1.509,7.658-2.925
		c1.275-0.702,2.584-1.562,3.736-2.512c1.151-0.949,2.145-1.991,2.83-2.781c0.685-0.79,1.06-1.329,1.414-1.882
		c0.353-0.553,0.684-1.118,0.986-1.699l0,0l0.034,12.617l0,0c7.045-0.039,14.089-0.01,21.134-0.015
		c0.382,0.025,0.765,0.009,1.589-0.107c0.825-0.115,2.091-0.33,3.604-0.753s3.274-1.053,4.863-1.777
		c1.589-0.726,3.005-1.545,4.229-2.379s2.253-1.683,3.279-2.657s2.05-2.074,2.997-3.235l0,0l-2.609,10.796l16.105,0.018l3.07-11.256
		l15.355,0.021l3.596,11.227l16.108,0.01L201.388,71.763L201.388,71.763L201.388,71.763z M53.579,103.979l4.15-17.344l5.039,17.37
		L53.579,103.979L53.579,103.979L53.579,103.979z M153.965,99.762c-0.024,1.396-0.228,3.114-0.708,4.69s-1.238,3.011-1.904,3.981
		c-0.667,0.971-1.241,1.477-2.007,1.949c-0.765,0.474-1.721,0.912-2.496,1.154s-1.37,0.286-2.054,0.305
		c-1.387,0.03-3.021-0.006-4.546-0.023l0,0l-0.004-25.145l0,0c0.488-0.026,0.979-0.035,1.681-0.043
		c0.702-0.009,1.617-0.018,2.746,0.204s2.471,0.672,3.38,1.073s1.385,0.75,2.091,1.608c0.705,0.858,1.64,2.226,2.268,3.428
		s0.948,2.239,1.186,3.294C153.834,97.293,153.989,98.367,153.965,99.762L153.965,99.762L153.965,99.762L153.965,99.762z
		 M185.475,104.02l4.34-17.565l4.725,17.565H185.475L185.475,104.02L185.475,104.02z"/>
</g>
</svg>
