<?xml version="1.0" encoding="utf-8"?>
<!-- Generator: Adobe Illustrator 16.0.0, SVG Export Plug-In . SVG Version: 6.00 Build 0)  -->
<!DOCTYPE svg PUBLIC "-//W3C//DTD SVG 1.1//EN" "http://www.w3.org/Graphics/SVG/1.1/DTD/svg11.dtd">
<svg version="1.1" id="Capa_1" xmlns="http://www.w3.org/2000/svg" xmlns:xlink="http://www.w3.org/1999/xlink" x="0px" y="0px"
	 width="64px" height="64px" viewBox="0 0 64 64" enable-background="new 0 0 64 64" xml:space="preserve">
<g>
	<path fill="#020202" d="M50.328,49.633l-19.723-2.73l-7.729-7.729c0,0,0-0.001-0.001-0.002c-0.286-0.286-0.286-0.752-0.002-1.037
		c0.187-0.187,0.406-0.215,0.519-0.215s0.331,0.027,0.516,0.213c0,0.001,0.001,0.001,0.001,0.002l0,0l5.843,5.843
		c0,0.001,0,0.001,0,0.001c0,0,0,0,0.001,0c0.017,0.018,0.035,0.031,0.052,0.048c0.025,0.023,0.05,0.048,0.077,0.069
		c0.858,0.793,1.951,1.193,3.047,1.193c1.15,0,2.302-0.438,3.179-1.312c1.75-1.753,1.749-4.604-0.001-6.355L20.065,21.579
		c-0.319-0.319-0.752-0.499-1.204-0.499H1.702C0.762,21.081,0,21.842,0,22.783c0,0.94,0.762,1.702,1.702,1.702h16.455l15.542,15.543
		c0.426,0.426,0.425,1.117,0.002,1.541c-0.425,0.425-1.117,0.425-1.543,0c0,0-0.001-0.001-0.002-0.002l-5.838-5.837
		c0-0.001,0-0.001-0.001-0.001s-0.001-0.001-0.001-0.002l0,0c0,0-0.001-0.001-0.002-0.002c-0.78-0.779-1.817-1.209-2.921-1.209
		c-1.105,0-2.144,0.43-2.927,1.213c-1.568,1.57-1.604,4.1-0.116,5.72c0.01,0.013,0.021,0.023,0.032,0.035
		c0.029,0.03,0.054,0.063,0.084,0.093c0,0,0.001,0.001,0.001,0.002h0l8.135,8.135c0.262,0.262,0.603,0.432,0.97,0.482l20.274,2.808
		c0.382,0.056,1.104,0.312,1.104,0.875c0.001,0.308-0.156,0.51-0.249,0.604c-0.094,0.094-0.297,0.251-0.606,0.251H27.42
		L9.373,36.684c-0.319-0.319-0.752-0.499-1.204-0.499H1.702C0.762,36.185,0,36.947,0,37.887s0.762,1.702,1.702,1.702h5.762
		l18.047,18.05c0.319,0.318,0.752,0.498,1.204,0.498h23.38c1.14,0,2.21-0.443,3.015-1.25c0.804-0.805,1.246-1.875,1.244-3.011
		C54.354,51.729,52.705,49.984,50.328,49.633z"/>
	<path fill="#020202" d="M53.605,5.863c-2.585,0-5.139,0.96-7.119,2.628c-1.981-1.668-4.535-2.628-7.118-2.628
		c-5.829,0-10.395,4.566-10.395,10.395c0,6.921,5.925,12.172,14.132,19.429l2.179,2.173c0.332,0.331,0.767,0.497,1.202,0.497
		c0.434,0,0.869-0.166,1.201-0.496l2.181-2.173C58.074,28.431,64,23.18,64,16.258C64,10.429,59.434,5.863,53.605,5.863z
		 M47.575,33.172c-0.025,0.021-0.05,0.045-0.073,0.069l-1.016,1.011l-1.014-1.011c-0.023-0.024-0.049-0.048-0.074-0.069
		c-8.316-7.354-13.021-11.767-13.021-16.914c0-3.986,3.005-6.991,6.991-6.991c2.171,0,4.401,1.041,5.817,2.717
		c0.324,0.382,0.799,0.603,1.301,0.603c0.5,0,0.977-0.221,1.299-0.603c1.418-1.676,3.647-2.717,5.82-2.717
		c3.985,0,6.99,3.005,6.99,6.991C60.596,21.406,55.891,25.817,47.575,33.172z"/>
</g>
</svg>
