<?xml version="1.0" encoding="utf-8"?>
<!-- Generator: Adobe Illustrator 16.0.0, SVG Export Plug-In . SVG Version: 6.00 Build 0)  -->
<!DOCTYPE svg PUBLIC "-//W3C//DTD SVG 1.1//EN" "http://www.w3.org/Graphics/SVG/1.1/DTD/svg11.dtd">
<svg version="1.1" id="Capa_1" xmlns="http://www.w3.org/2000/svg" xmlns:xlink="http://www.w3.org/1999/xlink" x="0px" y="0px"
	 width="64px" height="64px" viewBox="0 0 64 64" enable-background="new 0 0 64 64" xml:space="preserve">
<g>
	<g id="icons_24_">
		<g>
			<g>
				<path d="M15.609,16.121L15.609,16.121c0.003,0,0.006,0,0.008-0.001c0.003,0,0.006,0,0.008-0.001v0
					c2.857-0.521,4.781-3.237,4.309-6.114c-0.472-2.877-3.163-4.835-6.036-4.417v0c-0.003,0-0.005,0.001-0.008,0.001
					c-0.002,0-0.005,0-0.008,0.001v0c-2.856,0.521-4.78,3.236-4.308,6.113S12.736,16.54,15.609,16.121z"/>
				<path d="M35.212,47.623L24.898,37.171c-0.708-0.849-2.618-12.866-2.7-13.365c-0.21-1.279,0.153-2.091,0.153-2.091
					S27.535,8.398,28.06,6.932s0.495-2.425-0.518-3.153c-1.014-0.728-2.743-0.75-3.153,0.517l-5.553,13.325
					c0,0-1.415-0.516-2.979-0.287c-0.013,0.002-0.026,0.005-0.039,0.008c-0.013,0.002-0.026,0.003-0.039,0.005
					c-1.555,0.282-2.731,1.223-2.731,1.223L3.529,7.719C2.405,6.621,1.103,7.222,0.375,8.236c-0.727,1.013-0.312,2.156,0.518,3.153
					c0.829,0.997,10.133,12.184,10.133,12.184s0.603,0.653,0.812,1.933c0.017,0.101,0.021,0.13,2.016,12.284l1.338,20.562
					c0.087,1.341,1.202,2.37,2.527,2.37c0.055,0,0.111-0.002,0.167-0.006c1.396-0.091,2.455-1.297,2.364-2.693
					c0,0-1.206-17.88-1.206-18.537c0-0.404,0.393-0.635,0.856-0.164c0.463,0.469,11.704,11.86,11.704,11.86
					c0.983,0.996,2.587,1.007,3.583,0.024C36.184,50.223,36.195,48.619,35.212,47.623z"/>
			</g>
			<g>
				<path d="M46.842,21.069L46.842,21.069c0.002,0.001,0.004,0.001,0.006,0.002c0.002,0,0.004,0.001,0.006,0.002v0
					c0.019,0.006,0.037,0.01,0.055,0.016c0.018,0.006,0.035,0.014,0.053,0.021v0c0.002,0,0.004,0.001,0.006,0.002
					c0.002,0,0.004,0.001,0.006,0.002v0c2.15,0.694,4.469-0.459,5.205-2.605c0.736-2.146-0.388-4.479-2.512-5.25v0
					c-0.002,0-0.004-0.001-0.006-0.002s-0.004-0.001-0.006-0.002h-0.001c-0.019-0.005-0.036-0.01-0.054-0.016
					c-0.018-0.007-0.035-0.014-0.054-0.021l0.001,0c-0.002,0-0.005-0.001-0.007-0.002c-0.002,0-0.004-0.001-0.006-0.002l-0.001,0
					c-2.149-0.695-4.468,0.458-5.203,2.604C43.594,17.965,44.717,20.298,46.842,21.069z"/>
				<path d="M63.937,22.788c-0.218-0.946-1.137-1.359-2.796-1.015l-12.447,1.34c0,0-0.582-0.693-2.07-1.204
					c-1.489-0.51-2.367-0.317-2.367-0.317l-9.008-8.695c-1.098-1.29-2.076-1.527-2.83-0.914c-0.906,0.738-1.073,1.906-0.542,2.564
					c0.8,0.994,8.859,9.255,9.151,9.729s0.174,0.67-0.154,1.624c-0.139,0.405-2.281,6.375-3.094,8.589l-10.643,7.172
					c-0.929,0.625-1.174,1.885-0.548,2.813s1.886,1.175,2.814,0.549c0,0,11.223-7.542,11.495-7.746s0.636-0.075,0.513,0.312
					s-4.816,15.211-4.816,15.211c-0.338,1.067,0.254,2.207,1.321,2.545c0.204,0.064,0.409,0.096,0.612,0.096
					c0.861,0,1.659-0.553,1.933-1.416l5.298-16.731c0.021-0.07,0.039-0.142,0.053-0.213c3.012-8.783,2.99-8.719,2.91-8.489
					c0.328-0.954,0.354-1.182,0.875-1.377c0.521-0.195,11.955-1.775,13.196-2.068C63.615,24.951,64.199,23.927,63.937,22.788z"/>
			</g>
		</g>
	</g>
</g>
</svg>
