<?xml version="1.0" encoding="utf-8"?>
<!-- Generator: Adobe Illustrator 16.0.0, SVG Export Plug-In . SVG Version: 6.00 Build 0)  -->
<!DOCTYPE svg PUBLIC "-//W3C//DTD SVG 1.1//EN" "http://www.w3.org/Graphics/SVG/1.1/DTD/svg11.dtd">
<svg version="1.1" id="Layer_1" xmlns="http://www.w3.org/2000/svg" xmlns:xlink="http://www.w3.org/1999/xlink" x="0px" y="0px"
	 width="156.604px" height="147px" viewBox="46.656 6.667 156.604 147" enable-background="new 46.656 6.667 156.604 147"
	 xml:space="preserve">
<g>
	<ellipse fill="#F7941E" cx="119.333" cy="21" rx="15.333" ry="14.333"/>
	<path fill="#F7941E" d="M201,79c-1.334-0.667-31-19.333-83.667-4.667c-46.667,13-62-2.333-62.333-2.667
		c-1.667-2-4.667-2-6.667-0.333C46.333,73,46,76,48,78c0.667,0.667,10,11,35.667,11c9.667,0,21.667-1.667,36.333-5.667
		c48-13.667,75.666,3.333,75.666,3.333C198,88,201,87.333,202.334,85.333C204,83.333,203.334,80.333,201,79z"/>
	<path fill="#F7941E" d="M88.333,72.333c0.333,0,0.667,0,1,0C93,72,96,68.667,95.667,65C96,64,98,61.667,105,60.333V70
		c0,0,24.666-7,34.334-7.667v-7.667c18-7.667,23.666-27.333,25-38.667C164.666,12.333,162,8.667,158,8.333c-4-0.333-7.666,2.333-8,6
		C150,15.667,146,45,120.667,45c-0.333,0-0.333,0-0.667,0c-16.667-0.333-28,2.667-34.333,9c-5,5.333-4.333,10.667-4.333,11.667
		C81.667,69.667,84.667,72.333,88.333,72.333z"/>
	<path fill="#F7941E" d="M138.334,86L105,93.333L104.333,101c-0.333,3-1.667,7.334-2.667,7.666c0,0-3.667,0.334-12.667-9
		c-3-3-7.667-3-10.667-0.667c-3,2.666-3.333,7-0.333,9.666c3.333,3.668,13,13.668,23.667,13.668c1.667,0,3.333-0.334,5-0.668
		c9.667-3.332,16-18,16.333-22l13.666,23.667L130,144.666c-1,3.668,1,7.334,5,8.668c0.666,0.332,1.334,0.332,2,0.332
		c3.334,0,6-2,7-5L151.334,125c0.332-1.666,0.332-3-0.334-4.666L138.334,86z"/>
</g>
</svg>
