<?xml version="1.0" encoding="utf-8"?>
<!-- Generator: Adobe Illustrator 16.0.0, SVG Export Plug-In . SVG Version: 6.00 Build 0)  -->
<!DOCTYPE svg PUBLIC "-//W3C//DTD SVG 1.1//EN" "http://www.w3.org/Graphics/SVG/1.1/DTD/svg11.dtd">
<svg version="1.1" id="Layer_1" xmlns="http://www.w3.org/2000/svg" xmlns:xlink="http://www.w3.org/1999/xlink" x="0px" y="0px"
	 width="56.398px" height="86.634px" viewBox="0 0 56.398 86.634" enable-background="new 0 0 56.398 86.634" xml:space="preserve">
<path fill="#008BC0" d="M50.506,48.568c-0.488-2.185-3.54-8.641-3.331-10.394c0.547-4.688,8.753-5.284,6.59-13.078
	c-3.142-11.344-16.31,0.812-22.604,2.345c-2.941,0.721-6.501-0.457-9.799-0.208C5.904,28.416-9.161,44.644,6.845,48.432
	c0.581,5.029-0.192,12.771,0.188,19.369c0-0.008-0.004-0.012-0.005-0.016c0.222,2.817,0.553,5.557,0.757,8.346
	c0.346,3.975-0.92,7.686,3.098,9.57c9.492,4.469,34.786-8.688,45.516-6.463C54.908,70.379,53.021,59.812,50.506,48.568z
	 M14.247,77.979c-2.526-1.731-2.93-4.757-3.104-7.759c-0.146-2.014-0.247-3.973-0.354-6.015c0,0.006,0,0.006,0,0.006
	c-0.004-0.041-0.006-0.091-0.011-0.138c-0.004-0.065-0.006-0.135-0.01-0.205c0,0,0,0,0,0.006
	c-0.324-5.293,0.469-11.604-0.004-15.664c-12.724-3.008-0.741-15.912,11.555-16.854c2.622-0.201,5.454,0.732,7.792,0.165
	c5.002-1.217,15.479-10.887,17.98-1.865c1.721,6.2-4.809,6.675-5.243,10.401c-0.163,1.395,2.262,6.531,2.648,8.271
	c2.005,8.941,3.5,17.354,4.686,24.395C41.648,70.953,21.127,82.692,14.247,77.979z"/>
<path fill="#008BC0" d="M37.125,11.775c-0.703,0.704-0.99,1.765-0.639,2.761c0.489,1.392,2.011,2.123,3.4,1.636
	c1.204-0.421,1.909-1.617,1.762-2.832c0.022-0.007,0.043-0.009,0.066-0.015c1.215-0.43,1.93-1.645,1.758-2.878
	c0.789-0.455,1.278-1.276,1.329-2.16c0.671,0.447,1.531,0.592,2.353,0.303c0.549-0.192,0.994-0.557,1.302-1.004
	c0.52,0.157,1.091,0.165,1.644-0.027c1.333-0.471,2.049-1.892,1.676-3.231c0.552-0.694,0.749-1.646,0.433-2.543
	c-0.483-1.391-2.009-2.12-3.396-1.633c-0.461,0.159-0.839,0.445-1.136,0.79c-0.451-0.084-0.919-0.071-1.38,0.093
	c-0.595,0.206-1.059,0.613-1.369,1.109c-0.552-0.192-1.166-0.223-1.763-0.014c-0.681,0.24-1.199,0.729-1.498,1.329
	c-0.607-0.28-1.322-0.34-2-0.099c-1.391,0.486-2.119,2.009-1.632,3.396c0.004,0.021,0.016,0.035,0.021,0.052
	c-0.176,0.025-0.352,0.065-0.527,0.129c-1.392,0.491-2.119,2.01-1.634,3.398C36.119,10.979,36.57,11.47,37.125,11.775z"/>
<path fill="#008BC0" d="M43.292,17.843c-0.179,0.023-0.485,0.067-0.869,0.125c-0.121-0.366-0.239-0.715-0.344-1.021
	c-1.999,0.182-4.209,0.65-6.029,1.183c0.065,0.316,0.136,0.638,0.2,0.953c-0.335,0.067-0.591,0.119-0.736,0.152
	c-0.012,0.544,0.12,1.088,0.389,1.554c0.186-0.033,0.422-0.073,0.686-0.118c0.255,1.17,0.498,2.361,0.683,3.564
	c1.877-1.118,3.762-2.22,5.835-2.896c-0.008-0.555-0.101-1.145-0.232-1.735c0.283-0.045,0.527-0.086,0.729-0.115
	C43.214,18.988,43.65,18.372,43.292,17.843z"/>
</svg>
