<?xml version="1.0" encoding="utf-8"?>
<!-- Generator: Adobe Illustrator 16.0.0, SVG Export Plug-In . SVG Version: 6.00 Build 0)  -->
<!DOCTYPE svg PUBLIC "-//W3C//DTD SVG 1.1//EN" "http://www.w3.org/Graphics/SVG/1.1/DTD/svg11.dtd">
<svg version="1.1" id="Layer_1" xmlns="http://www.w3.org/2000/svg" xmlns:xlink="http://www.w3.org/1999/xlink" x="0px" y="0px"
	 width="70px" height="70px" viewBox="0 0 70 70" enable-background="new 0 0 70 70" xml:space="preserve">
<g>
	<g>
		<path fill="#050505" d="M38.098,50.44c7.827,0,14.197-6.368,14.197-14.195s-6.37-14.198-14.197-14.198
			c-7.828,0-14.197,6.369-14.197,14.198C23.901,44.072,30.269,50.44,38.098,50.44z"/>
		<path fill="#050505" d="M38.098,54.25c9.945,0,18.005-8.062,18.005-18.005c0-9.945-8.06-18.007-18.005-18.007
			c-9.945,0-18.006,8.062-18.006,18.007C20.092,46.188,28.153,54.25,38.098,54.25z M38.098,20.998
			c8.405,0,15.248,6.841,15.248,15.247c0,8.407-6.842,15.247-15.248,15.247c-8.407,0-15.247-6.84-15.247-15.247
			C22.851,27.839,29.69,20.998,38.098,20.998z"/>
		<path fill="#050505" d="M66.108,55.926l-1.051-40.413c0-0.87-0.706-1.575-1.575-1.575c-0.232,0-0.451,0.054-0.65,0.145v-0.015
			c0,0-0.041,0.025-0.1,0.065c-0.15,0.085-0.285,0.187-0.402,0.312c-1.153,0.946-4.83,4.804-5.138,10.019
			c-0.468,7.954,3.396,11.176,4.712,14.127l-1.049,17.335c0,0.869,1.756,1.575,2.625,1.575
			C64.352,57.501,66.108,56.796,66.108,55.926z"/>
		<path fill="#050505" d="M7.75,31.307l2.72,1.358c0.31,0.155,0.651,0.269,1.009,0.352l-1.051,23.642c0,0.729,1.757,1.32,2.627,1.32
			c0.87,0,2.626-0.591,2.626-1.32l-1.05-23.762c0.37-0.116,0.726-0.258,1.038-0.449l2.015-1.227
			c1.454-0.888,2.549-2.838,2.549-4.541V16.088c0-0.871-0.706-1.576-1.576-1.576c-0.869,0-1.576,0.705-1.576,1.576v9.541h-0.875
			v-9.541c0-0.871-0.706-1.576-1.576-1.576c-0.87,0-1.576,0.705-1.576,1.576v9.541h-0.878v-9.541c0-0.871-0.706-1.576-1.576-1.576
			c-0.869,0-1.576,0.705-1.576,1.576v9.541H8.152v-9.2c0-0.871-0.707-1.577-1.577-1.577C5.706,14.852,5,15.558,5,16.429v10.427
			C5,28.608,6.183,30.523,7.75,31.307z"/>
	</g>
</g>
</svg>
