<?xml version="1.0" encoding="utf-8"?>
<!-- Generator: Adobe Illustrator 16.0.0, SVG Export Plug-In . SVG Version: 6.00 Build 0)  -->
<!DOCTYPE svg PUBLIC "-//W3C//DTD SVG 1.1//EN" "http://www.w3.org/Graphics/SVG/1.1/DTD/svg11.dtd">
<svg version="1.1" id="Capa_1" xmlns="http://www.w3.org/2000/svg" xmlns:xlink="http://www.w3.org/1999/xlink" x="0px" y="0px"
	 width="511.999px" height="433.226px" viewBox="0 39.388 511.999 433.226" enable-background="new 0 39.388 511.999 433.226"
	 xml:space="preserve">
<g>
	<g>
		<path fill="#F7941E" d="M177.233,39.388H59.078c-16.412,0-30.36,5.744-41.85,17.229C5.744,68.104,0,82.052,0,98.465v118.151
			c0,16.413,5.741,30.358,17.228,41.843c11.489,11.483,25.44,17.23,41.85,17.23H128c8.203,0,15.179,2.873,20.923,8.615
			c5.744,5.739,8.615,12.717,8.615,20.926v9.841c0,21.744-7.694,40.303-23.077,55.69c-15.384,15.38-33.947,23.072-55.694,23.072
			h-19.69c-5.336,0-9.95,1.954-13.85,5.849c-3.896,3.896-5.845,8.512-5.845,13.846v39.389c0,5.325,1.95,9.951,5.845,13.847
			c3.902,3.894,8.512,5.849,13.85,5.849h19.691c21.335,0,41.694-4.16,61.08-12.465c19.385-8.306,36.153-19.54,50.308-33.694
			c14.151-14.155,25.383-30.921,33.69-50.307c8.306-19.385,12.46-39.742,12.46-61.074V98.461c0-16.413-5.744-30.36-17.229-41.845
			C207.593,45.131,193.642,39.388,177.233,39.388z"/>
		<path fill="#F7941E" d="M494.765,56.617c-11.484-11.485-25.434-17.229-41.846-17.229H334.768c-16.412,0-30.36,5.744-41.846,17.229
			c-11.483,11.489-17.226,25.435-17.226,41.849v118.151c0,16.413,5.742,30.358,17.226,41.843
			c11.485,11.483,25.435,17.23,41.846,17.23h68.923c8.202,0,15.184,2.873,20.927,8.615c5.737,5.741,8.615,12.717,8.615,20.926v9.841
			c0,21.744-7.693,40.303-23.08,55.69c-15.383,15.38-33.941,23.072-55.691,23.072h-19.693c-5.332,0-9.95,1.954-13.846,5.849
			c-3.897,3.896-5.85,8.512-5.85,13.846v39.389c0,5.325,1.952,9.951,5.85,13.847c3.895,3.894,8.512,5.849,13.846,5.849h19.693
			c21.333,0,41.69-4.16,61.079-12.465c19.381-8.306,36.147-19.54,50.303-33.694c14.154-14.155,25.394-30.925,33.694-50.307
			c8.305-19.38,12.462-39.742,12.462-61.074V98.461C511.996,82.048,506.257,68.101,494.765,56.617z"/>
	</g>
</g>
</svg>
