<?xml version="1.0" encoding="utf-8"?>
<!-- Generator: Adobe Illustrator 16.0.0, SVG Export Plug-In . SVG Version: 6.00 Build 0)  -->
<!DOCTYPE svg PUBLIC "-//W3C//DTD SVG 1.1//EN" "http://www.w3.org/Graphics/SVG/1.1/DTD/svg11.dtd">
<svg version="1.1" id="Layer_1" xmlns="http://www.w3.org/2000/svg" xmlns:xlink="http://www.w3.org/1999/xlink" x="0px" y="0px"
	 width="192.756px" height="192.756px" viewBox="0 0 192.756 192.756" enable-background="new 0 0 192.756 192.756"
	 xml:space="preserve">
<g>
	<polygon fill-rule="evenodd" clip-rule="evenodd" fill="#FFFFFF" points="0,0 192.756,0 192.756,192.756 0,192.756 0,0 	"/>
	<path fill-rule="evenodd" clip-rule="evenodd" fill="#F47920" d="M40.604,87.029c-2.17,0-4.663,0.445-6.272,1.246
		c-0.44,0.242-0.602,0.605-0.602,0.965v1.807c0,0.568,0.443,0.806,0.685,0.806c0.481,0,0.843-0.443,1.085-0.603
		c1.486-1.002,2.973-1.691,4.945-1.691c2.449,0,2.812,1.608,2.812,3.58l-0.007,0.074c0,0.922-0.314,1.092-3.81,1.535
		c-2.131,0.281-6.995,1.246-6.995,5.626c0,3.617,2.894,5.547,6.271,5.547c1.85,0,3.376-0.807,4.663-1.93l0.08,1.045
		c0,0.281,0.202,0.482,0.402,0.482h3.657c0.281,0,0.483-0.201,0.483-0.482v-12.5C48,89.28,46.27,87.029,40.604,87.029L40.604,87.029
		z M43.178,101.66c0,0.527-1.373,1.941-3.228,1.941c-2.139,0-2.946-1.535-2.946-3.068c0-2.178,1.694-4.193,6.174-4.193V101.66
		L43.178,101.66z"/>
	<path fill-rule="evenodd" clip-rule="evenodd" fill="#F47920" d="M53.724,80.6c-1.774,0-2.623,1.049-2.623,2.261
		c0,1.451,1.048,2.42,2.623,2.42c1.574,0,2.542-0.97,2.542-2.42C56.266,81.649,55.419,80.6,53.724,80.6L53.724,80.6z"/>
	<path fill-rule="evenodd" clip-rule="evenodd" fill="#F47920" d="M51.424,87.984v17.113c0,0.275,0.203,0.482,0.403,0.482h3.874
		c0.281,0,0.485-0.207,0.485-0.482V87.984c0-0.281-0.204-0.486-0.485-0.486h-3.874C51.626,87.498,51.424,87.703,51.424,87.984
		L51.424,87.984z"/>
	<path fill-rule="evenodd" clip-rule="evenodd" fill="#F47920" d="M13.894,104.527c6.779,3.188,16.424,1.332,16.424-6.777
		c0-7.464-12.791-6.983-12.791-11.584c0-1.854,1.775-3.104,4.034-3.104c2.018,0,3.552,0.687,5.166,1.859
		c0.445,0.319,0.728,0.522,1.089,0.522c0.445,0,0.565-0.283,0.565-0.648v-2.336c0-0.367-0.08-0.57-0.444-0.729
		c-1.371-0.523-3.793-1.052-6.457-1.052c-5.365,0-8.273,3.312-8.273,7.065c0,8.151,12.59,6.458,12.59,11.986
		c0,3.35-4.842,5.689-10.45,1.771c-0.525-0.361-0.768-0.562-1.13-0.562c-0.686,0-0.809,0.365-0.809,0.727v2.057
		C13.408,104.082,13.491,104.287,13.894,104.527L13.894,104.527z"/>
	<path fill-rule="evenodd" clip-rule="evenodd" fill="#F47920" d="M60.18,87.984v17.113c0,0.275,0.202,0.482,0.404,0.482h3.874
		c0.281,0,0.484-0.207,0.484-0.482V91.294c0.768-0.445,2.381-1.25,3.752-1.25c2.666,0,2.826,1.613,2.826,2.984v12.069
		c0,0.275,0.201,0.482,0.404,0.482h3.875c0.281,0,0.482-0.207,0.482-0.482V92.626c0-3.269-1.735-5.53-5.61-5.53
		c-2.218,0-4.559,1.091-5.77,1.818h-0.08v-0.93c0-0.281-0.202-0.486-0.484-0.486h-3.753C60.381,87.498,60.18,87.703,60.18,87.984
		L60.18,87.984z"/>
	<path fill-rule="evenodd" clip-rule="evenodd" fill="#F47920" d="M91.092,88.107c-5.245-2.183-12.269-1.011-12.269,4.679
		c0,6.417,10.169,5.085,10.169,8.554c0,2.789-4.802,3.07-8.272,0.404c-0.243-0.201-0.485-0.318-0.767-0.318
		c-0.403,0-0.645,0.16-0.645,0.723v1.572c0,0.447,0.119,0.807,0.605,1.049c4.478,2.02,12.71,2.062,12.71-5.365
		c0-6.376-10.29-4.923-10.29-8.11c0-2.621,5.044-2.379,7.951-0.406c0.241,0.162,0.563,0.324,0.766,0.324
		c0.402,0,0.647-0.162,0.647-0.725v-1.333C91.698,88.709,91.575,88.306,91.092,88.107L91.092,88.107z"/>
	<path fill-rule="evenodd" clip-rule="evenodd" fill="#F47920" d="M178.014,88.107c-5.245-2.183-12.269-1.011-12.269,4.679
		c0,6.417,10.172,5.085,10.172,8.554c0,2.789-4.805,3.07-8.274,0.404c-0.242-0.201-0.485-0.318-0.768-0.318
		c-0.404,0-0.645,0.16-0.645,0.723v1.572c0,0.447,0.12,0.807,0.605,1.049c4.478,2.02,12.713,2.062,12.713-5.365
		c0-6.376-10.291-4.923-10.291-8.11c0-2.621,5.044-2.379,7.95-0.406c0.241,0.162,0.563,0.324,0.765,0.324
		c0.403,0,0.647-0.162,0.647-0.725v-1.333C178.62,88.709,178.497,88.306,178.014,88.107L178.014,88.107z"/>
	<path fill-rule="evenodd" clip-rule="evenodd" fill="#F47920" d="M138.386,92.907c0-1.937,0.687-3.148,4.884-2.058
		c0.524,0.121,0.848,0.242,1.291,0.242c0.281,0,0.524-0.28,0.524-0.563v-2.382c0-0.403-0.282-0.723-0.809-0.846
		c-2.904-0.687-4.68,0.644-6.173,2.058l-0.08-0.042v-1.332c0-0.281-0.202-0.486-0.484-0.486h-3.512
		c-0.201,0-0.403,0.205-0.403,0.486v17.113c0,0.275,0.202,0.482,0.403,0.482h3.873c0.284,0,0.485-0.207,0.485-0.482V92.907
		L138.386,92.907z"/>
	<path fill-rule="evenodd" clip-rule="evenodd" fill="#F47920" d="M165.342,87.583c1.897,0,4.037-7.104,0.525-7.104h-1.897
		c-0.442,0-0.522,0.322-0.522,0.564c0,0.485,1.208,1.696,1.208,3.351c0,1.693-0.644,2.3-0.644,2.824
		c0,0.205,0.201,0.365,0.482,0.365H165.342L165.342,87.583z"/>
	<path fill-rule="evenodd" clip-rule="evenodd" fill="#F47920" d="M155.132,100.008l-0.24-0.766l-3.834-11.299
		c-0.122-0.321-0.281-0.445-0.646-0.445h-4.115c-0.243,0-0.363,0.124-0.363,0.365c0,0.122,0.039,0.244,0.202,0.646l6.697,16.261
		c1.131,2.746-2.177,4.723-5.367,3.836c-0.484-0.123-0.807-0.242-1.25-0.242c-0.282,0-0.524,0.281-0.524,0.562v2.301
		c0,0.486,0.322,1.051,2.099,1.051c4.277,0,6.577-2.18,8.635-7.305l6.618-16.585c0.081-0.242,0.162-0.363,0.162-0.525
		c0-0.201-0.162-0.365-0.362-0.365h-2.867c-0.281,0-0.483,0.164-0.564,0.445l-3.954,11.299L155.132,100.008L155.132,100.008z"/>
	<path fill-rule="evenodd" clip-rule="evenodd" fill="#F47920" d="M130.153,105.098V87.984c0-0.281-0.201-0.486-0.402-0.486h-3.875
		c-0.282,0-0.483,0.205-0.483,0.486v13.801c-0.767,0.443-2.382,1.25-3.753,1.25c-2.662,0-2.825-1.609-2.825-2.986V87.984
		c0-0.281-0.202-0.486-0.403-0.486h-3.873c-0.284,0-0.486,0.205-0.486,0.486v12.469c0,3.268,1.736,5.527,5.611,5.527
		c2.219,0,4.56-1.09,5.77-1.812h0.082v0.93c0,0.275,0.199,0.482,0.483,0.482h3.753C129.952,105.58,130.153,105.373,130.153,105.098
		L130.153,105.098z"/>
	<path fill-rule="evenodd" clip-rule="evenodd" fill="#F47920" d="M94.805,81.166c0-0.286,0.201-0.488,0.403-0.488h3.873
		c0.281,0,0.483,0.203,0.483,0.488v8.069v-0.039c0.769-0.646,2.543-2.06,5.287-2.06c4.158,0,6.779,3.632,6.779,8.475
		c0,6.214-4.317,10.331-9.645,10.331c-2.905,0-5.044-1.01-6.457-2.1c-0.604-0.443-0.725-1.205-0.725-1.854V81.166L94.805,81.166z
		 M100.131,103.32c0.402,0.24,1.008,0.441,2.178,0.441c2.583,0,4.398-2.662,4.398-7.18c0-1.697-0.362-6.463-4.035-6.463
		c-1.451,0-2.501,0.812-3.107,1.252v10.898C99.564,102.637,99.646,102.996,100.131,103.32L100.131,103.32z"/>
</g>
</svg>
