<?xml version="1.0" encoding="utf-8"?>
<!-- Generator: Adobe Illustrator 16.0.0, SVG Export Plug-In . SVG Version: 6.00 Build 0)  -->
<!DOCTYPE svg PUBLIC "-//W3C//DTD SVG 1.1//EN" "http://www.w3.org/Graphics/SVG/1.1/DTD/svg11.dtd">
<svg version="1.1" id="Layer_1" xmlns="http://www.w3.org/2000/svg" xmlns:xlink="http://www.w3.org/1999/xlink" x="0px" y="0px"
	 width="175.748px" height="50.553px" viewBox="0 0 175.748 50.553" enable-background="new 0 0 175.748 50.553"
	 xml:space="preserve">
<path fill-rule="evenodd" clip-rule="evenodd" fill="#00539F" d="M13.483,41.795H34.88c0.25,0,0.25,0.125,0,0.25
	c-2.377,1.125-5.881,4.629-5.881,4.629c-2.377,2.379-4.254,3.879-8.384,3.879H0.094c-0.125,0-0.125-0.25,0-0.25
	c2.252-1.25,5.631-4.754,5.631-4.754C7.101,43.922,9.979,41.795,13.483,41.795L13.483,41.795z"/>
<path fill-rule="evenodd" clip-rule="evenodd" fill="#00539F" d="M154.13,41.795h21.523c0.125,0,0.125,0.125,0,0.25
	c-2.504,1.125-5.881,4.629-5.881,4.629c-2.504,2.379-4.381,3.879-8.385,3.879h-20.521c-0.125,0-0.125-0.25,0-0.25
	c2.252-1.25,5.631-4.754,5.631-4.754C147.875,43.922,150.626,41.795,154.13,41.795L154.13,41.795z"/>
<path fill-rule="evenodd" clip-rule="evenodd" fill="#00539F" d="M48.645,41.795h21.398c0.25,0,0.25,0.125,0,0.25
	c-2.377,1.125-5.881,4.629-5.881,4.629c-2.377,2.379-4.254,3.879-8.384,3.879H35.381c-0.25,0-0.25-0.25-0.125-0.25
	c2.252-1.25,5.631-4.754,5.631-4.754C42.263,43.922,45.141,41.795,48.645,41.795L48.645,41.795z"/>
<path fill-rule="evenodd" clip-rule="evenodd" fill="#00539F" d="M83.807,41.795h21.398c0.25,0,0.25,0.125,0,0.25
	c-2.377,1.125-5.881,4.629-5.881,4.629c-2.379,2.379-4.256,3.879-8.26,3.879H70.543c-0.125,0-0.125-0.25-0.125-0.25
	c2.377-1.25,5.631-4.754,5.631-4.754C77.425,43.922,80.303,41.795,83.807,41.795L83.807,41.795z"/>
<path fill-rule="evenodd" clip-rule="evenodd" fill="#00539F" d="M118.968,41.795h21.523c0.125,0,0.125,0.125-0.125,0.25
	c-2.377,1.125-5.881,4.629-5.881,4.629c-2.379,2.379-4.256,3.879-8.26,3.879h-20.521c-0.125,0-0.125-0.25,0-0.25
	c2.252-1.25,5.631-4.754,5.631-4.754C112.587,43.922,115.464,41.795,118.968,41.795L118.968,41.795z"/>
<path fill-rule="evenodd" clip-rule="evenodd" fill="#ED1C2E" d="M124.851,0c-13.516,0-22.525,7.007-22.525,17.644
	c0,9.761,8.26,16.267,20.521,16.267c4.006,0,7.508-0.5,11.639-1.627V24.15c-2.879,3.254-6.383,4.504-10.137,4.504
	c-7.258,0-12.262-4.754-12.262-11.762c0-6.882,5.129-11.887,12.387-11.887c3.879,0,7.008,1.501,9.51,4.129V0.876
	C131.357,0.375,128.103,0,124.851,0L124.851,0z"/>
<path fill-rule="evenodd" clip-rule="evenodd" fill="#ED1C2E" d="M23.994,5.756c5.005,0,11.012,1.001,13.515,3.128V1.126H1.971
	v7.758C4.473,6.757,9.854,5.881,15.61,5.881v21.273c0,3.127-0.25,4.004-1.501,5.631h11.387c-1.251-1.627-1.502-2.504-1.502-5.631
	V5.756L23.994,5.756z"/>
<path fill-rule="evenodd" clip-rule="evenodd" fill="#ED1C2E" d="M60.282,13.389c-2.002,0.751-5.756,0.876-7.633,0.876h-3.003V5.881
	h4.004c3.629,0,9.76,0.75,12.138,2.878V1.126H39.886c1.251,1.502,1.501,2.503,1.501,5.506v20.522c0,3.127-0.25,4.004-1.376,5.631
	H67.54v-7.759c-3.754,2.878-11.011,2.878-13.89,2.878h-4.004V19.02h2.878c2.002,0,5.631,0.25,7.758,1.001V13.389L60.282,13.389z"/>
<path fill-rule="evenodd" clip-rule="evenodd" fill="#ED1C2E" d="M98.697,2.127C94.568,0.751,89.188,0,85.058,0
	C77.55,0,70.292,2.377,70.292,10.386c0,13.765,22.523,6.507,22.523,15.016c0,2.752-4.003,3.879-7.257,3.879
	c-5.756,0-9.76-1.002-14.766-4.255v7.007c3.754,1.252,8.885,2.002,14.39,2.002c7.758,0,15.016-2.252,15.016-10.385
	c0-14.515-22.398-8.008-22.398-15.016c0-2.878,3.629-3.879,6.757-3.879c5.256,0,11.012,1.626,14.139,4.754V2.127L98.697,2.127z"/>
<path fill-rule="evenodd" clip-rule="evenodd" fill="#ED1C2E" d="M156.509,0.5c-12.139,0-20.773,7.007-20.773,16.893
	c0,9.761,7.76,16.142,19.146,16.142c12.262,0,20.771-6.756,20.771-16.768C175.654,7.007,167.896,0.5,156.509,0.5L156.509,0.5z
	 M155.632,28.781c-6.506,0-10.637-5.256-10.637-11.763s4.131-11.763,10.637-11.763c6.381,0,10.637,5.256,10.637,11.763
	S162.013,28.781,155.632,28.781L155.632,28.781z"/>
</svg>
