<?xml version="1.0" encoding="utf-8"?>
<!-- Generator: Adobe Illustrator 16.0.0, SVG Export Plug-In . SVG Version: 6.00 Build 0)  -->
<!DOCTYPE svg PUBLIC "-//W3C//DTD SVG 1.1//EN" "http://www.w3.org/Graphics/SVG/1.1/DTD/svg11.dtd">
<svg version="1.1" id="Capa_1" xmlns="http://www.w3.org/2000/svg" xmlns:xlink="http://www.w3.org/1999/xlink" x="0px" y="0px"
	 width="512px" height="512px" viewBox="0 0 512 512" enable-background="new 0 0 512 512" xml:space="preserve">
<g>
	<g>
		<path fill="#142B5D" d="M256,0C114.842,0,0,114.842,0,256c0,141.147,114.842,256,256,256c141.147,0,256-114.853,256-256
			C512,114.842,397.168,0,256,0z M370.203,197.409c0.113,2.537,0.175,5.094,0.175,7.651c0,77.864-59.251,167.618-167.659,167.618
			c-33.276,0-64.253-9.724-90.321-26.45c4.609,0.547,9.301,0.825,14.055,0.825c27.615,0,53.013-9.425,73.183-25.223
			c-25.779-0.474-47.547-17.51-55.044-40.928c3.588,0.682,7.29,1.062,11.075,1.062c5.373,0,10.59-0.701,15.529-2.052
			c-26.955-5.403-47.259-29.213-47.259-57.777c0-0.248,0-0.505,0.01-0.743c7.94,4.403,17.025,7.063,26.677,7.363
			c-15.798-10.549-26.202-28.595-26.202-49.033c0-10.807,2.897-20.933,7.971-29.636c29.048,35.658,72.481,59.107,121.442,61.582
			c-1.01-4.321-1.516-8.807-1.516-13.437c0-32.534,26.377-58.921,58.912-58.921c16.952,0,32.244,7.156,43.01,18.603
			c13.436-2.64,26.017-7.528,37.432-14.302c-4.434,13.766-13.746,25.305-25.944,32.605c11.931-1.423,23.315-4.578,33.843-9.27
			C391.713,178.744,381.721,189.128,370.203,197.409z"/>
	</g>
</g>
</svg>
