<?xml version="1.0" encoding="utf-8"?>
<!-- Generator: Adobe Illustrator 16.0.0, SVG Export Plug-In . SVG Version: 6.00 Build 0)  -->
<!DOCTYPE svg PUBLIC "-//W3C//DTD SVG 1.1//EN" "http://www.w3.org/Graphics/SVG/1.1/DTD/svg11.dtd">
<svg version="1.1" id="Capa_1" xmlns="http://www.w3.org/2000/svg" xmlns:xlink="http://www.w3.org/1999/xlink" x="0px" y="0px"
	 width="512px" height="512px" viewBox="0 0 512 512" enable-background="new 0 0 512 512" xml:space="preserve">
<g>
	<g>
		<polygon fill="#142B5D" points="134.487,274.893 154.784,274.893 154.784,384.746 173.986,384.746 173.986,274.893 
			194.66,274.893 194.66,256.9 134.487,256.9 		"/>
		<path fill="#142B5D" d="M296.85,288.322c-6.348,0-12.271,3.468-17.84,10.33v-41.757h-17.259v127.851h17.259v-9.229
			c5.777,7.129,11.696,10.544,17.84,10.544c6.867,0,11.486-3.614,13.791-10.707c1.158-4.038,1.75-10.381,1.75-19.196v-37.933
			c0-9.02-0.592-15.315-1.75-19.144C308.342,291.938,303.711,288.322,296.85,288.322z M295.121,357.51
			c0,8.61-2.524,12.854-7.511,12.854c-2.833,0-5.72-1.356-8.605-4.248v-58.057c2.886-2.854,5.772-4.205,8.605-4.205
			c4.981,0,7.511,4.41,7.511,13V357.51z"/>
		<path fill="#142B5D" d="M229.543,362.286c-3.829,5.411-7.448,8.077-10.916,8.077c-2.305,0-3.619-1.356-4.039-4.038
			c-0.157-0.556-0.157-2.661-0.157-6.705v-70.135h-17.264v75.315c0,6.73,0.582,11.277,1.524,14.168
			c1.733,4.829,5.568,7.093,11.12,7.093c6.354,0,12.87-3.835,19.731-11.702v10.393h17.274v-95.267h-17.274V362.286z"/>
		<path fill="#142B5D" d="M244.361,201.479c5.62,0,8.318-4.457,8.318-13.361v-40.494c0-8.91-2.697-13.346-8.318-13.346
			c-5.625,0-8.328,4.442-8.328,13.346v40.494C236.033,197.027,238.736,201.479,244.361,201.479z"/>
		<path fill="#142B5D" d="M256,0C114.615,0,0,114.615,0,256c0,141.386,114.615,256,256,256c141.386,0,256-114.614,256-256
			C512,114.615,397.386,0,256,0z M284.473,119.737h17.395v70.878c0,4.091,0,6.212,0.21,6.783c0.383,2.703,1.755,4.085,4.091,4.085
			c3.488,0,7.15-2.703,11.021-8.166v-73.582h17.442v96.267h-17.442v-10.497c-6.945,7.961-13.565,11.822-19.93,11.822
			c-5.615,0-9.491-2.279-11.241-7.15c-0.963-2.917-1.545-7.521-1.545-14.315V119.737L284.473,119.737z M218.591,151.128
			c0-10.292,1.75-17.814,5.458-22.68c4.824-6.584,11.617-9.873,20.312-9.873c8.737,0,15.525,3.289,20.35,9.873
			c3.656,4.861,5.405,12.388,5.405,22.68v33.71c0,10.235-1.749,17.825-5.405,22.638c-4.824,6.568-11.613,9.853-20.35,9.853
			c-8.695,0-15.488-3.284-20.312-9.853c-3.708-4.813-5.458-12.409-5.458-22.638V151.128z M171.943,86.823l13.734,50.729
			l13.194-50.729h19.563l-23.272,76.865v52.321h-19.338v-52.321c-1.755-9.271-5.625-22.853-11.833-40.871
			c-4.075-11.99-8.323-24.016-12.398-35.995H171.943z M393.812,393.158c-3.498,15.185-15.917,26.394-30.871,28.064
			c-35.424,3.955-71.256,3.976-106.957,3.955c-35.686,0.021-71.539,0-106.952-3.955c-14.954-1.671-27.378-12.875-30.867-28.064
			c-4.981-21.627-4.981-45.244-4.981-67.516s0.063-45.884,5.039-67.516c3.494-15.19,15.907-26.399,30.861-28.065
			c35.418-3.955,71.266-3.976,106.962-3.955c35.685-0.021,71.533,0,106.952,3.955c14.954,1.671,27.378,12.875,30.882,28.065
			c4.966,21.632,4.935,45.244,4.935,67.516S398.794,371.531,393.812,393.158z"/>
		<path fill="#142B5D" d="M351.826,288.322c-8.83,0-15.688,3.242-20.674,9.764c-3.661,4.818-5.332,12.268-5.332,22.444v33.37
			c0,10.125,1.87,17.626,5.547,22.397c4.981,6.505,11.859,9.758,20.889,9.758c9.015,0,16.091-3.409,20.867-10.329
			c2.096-3.059,3.457-6.521,4.033-10.345c0.163-1.729,0.367-5.557,0.367-11.125v-2.509h-17.604c0,6.914-0.226,10.753-0.377,11.69
			c-0.985,4.615-3.468,6.92-7.716,6.92c-5.929,0-8.83-4.4-8.83-13.21v-16.897h34.527V320.52c0-10.177-1.723-17.625-5.343-22.443
			C367.357,291.57,360.49,288.322,351.826,288.322z M360.27,325.889h-17.264v-8.815c0-8.81,2.896-13.215,8.664-13.215
			c5.709,0,8.6,4.41,8.6,13.215V325.889z"/>
	</g>
</g>
</svg>
